<svg width="28" height="28" viewBox="0 0 28 28" fill="none" xmlns="http://www.w3.org/2000/svg">
<path d="M28.0004 14.3109C28.0004 13.1598 27.9051 12.3198 27.6988 11.4487H14.2861V16.6442H22.1591C22.0004 17.9354 21.1433 19.8798 19.2385 21.1864L19.2118 21.3604L23.4526 24.58L23.7464 24.6087C26.4448 22.1665 28.0004 18.5731 28.0004 14.3109Z" fill="#4285F4"/>
<path d="M14.2853 27.9998C18.1424 27.9998 21.3804 26.7553 23.7456 24.6086L19.2377 21.1863C18.0313 22.0108 16.4123 22.5863 14.2853 22.5863C10.5076 22.5863 7.30128 20.1441 6.15832 16.7686L5.99078 16.7825L1.58111 20.127L1.52344 20.2841C3.87261 24.8574 8.698 27.9998 14.2853 27.9998Z" fill="#34A853"/>
<path d="M6.15866 16.769C5.85708 15.8979 5.68255 14.9645 5.68255 14.0001C5.68255 13.0356 5.85708 12.1023 6.1428 11.2312L6.13481 11.0456L1.66986 7.64746L1.52377 7.71556C0.555561 9.61336 0 11.7445 0 14.0001C0 16.2556 0.555561 18.3867 1.52377 20.2845L6.15866 16.769Z" fill="#FBBC05"/>
<path d="M14.2854 5.4133C16.9679 5.4133 18.7774 6.54885 19.8092 7.4978L23.8409 3.64C21.3648 1.38445 18.1425 0 14.2854 0C8.69804 0 3.87262 3.1422 1.52344 7.71549L6.14247 11.2311C7.30131 7.85555 10.5076 5.4133 14.2854 5.4133Z" fill="#EB4335"/>
</svg>
