<svg width="24" height="24" viewBox="0 0 24 24" fill="none" xmlns="http://www.w3.org/2000/svg">
<path d="M13.415 14.266L18.3607 9.32037C18.6366 9.04447 18.6366 8.59711 18.3607 8.32121C18.0848 8.04527 17.6374 8.04527 17.3615 8.32121L12.9155 12.7673L10.5889 10.4408C10.313 10.1648 9.86567 10.1648 9.58977 10.4408C9.31383 10.7167 9.31383 11.164 9.58977 11.4399L12.4159 14.266C12.6918 14.542 13.1391 14.542 13.415 14.266Z" fill="#84C978" stroke="#84C978" stroke-width="0.5"/>
<path d="M9.88011 17.6522H9.1025C9.01069 17.2019 8.83256 16.7827 8.58682 16.4121L9.13796 15.8609C9.4139 15.585 9.4139 15.1377 9.13796 14.8618C8.86206 14.5858 8.41474 14.5858 8.1388 14.8618L7.58767 15.4129C7.21701 15.1672 6.79786 14.989 6.3475 14.8972V14.1196C6.3475 13.7294 6.03115 13.4131 5.64097 13.4131C5.2508 13.4131 4.93445 13.7294 4.93445 14.1196V14.8972C4.48409 14.989 4.06494 15.1672 3.69428 15.4129L3.14315 14.8618C2.86721 14.5858 2.41989 14.5858 2.14399 14.8618C1.86805 15.1377 1.86805 15.585 2.14399 15.8609L2.69513 16.4121C2.44939 16.7827 2.27126 17.2019 2.17945 17.6522H1.40184C1.01166 17.6522 0.695312 17.9686 0.695312 18.3587C0.695312 18.7489 1.01166 19.0653 1.40184 19.0653H2.17945C2.27126 19.5156 2.44939 19.9348 2.69513 20.3054L2.14399 20.8566C1.86805 21.1325 1.86805 21.5798 2.14399 21.8557C2.41985 22.1316 2.86721 22.1317 3.14315 21.8557L3.69428 21.3046C4.06494 21.5503 4.48409 21.7285 4.93445 21.8203V22.5979C4.93445 22.9881 5.2508 23.3044 5.64097 23.3044C6.03115 23.3044 6.3475 22.9881 6.3475 22.5979V21.8203C6.79786 21.7285 7.21701 21.5503 7.58767 21.3046L8.1388 21.8557C8.4147 22.1316 8.86206 22.1317 9.13796 21.8557C9.4139 21.5798 9.4139 21.1325 9.13796 20.8566L8.58682 20.3054C8.83256 19.9348 9.01069 19.5156 9.1025 19.0653H9.88011C10.2703 19.0653 10.5866 18.7489 10.5866 18.3587C10.5866 17.9686 10.2703 17.6522 9.88011 17.6522ZM7.6426 19.0546C7.43002 19.6643 6.94654 20.1478 6.33686 20.3604C6.28064 20.0265 5.99088 19.7718 5.64097 19.7718C5.29107 19.7718 5.00131 20.0265 4.94509 20.3604C4.33541 20.1478 3.85197 19.6644 3.63935 19.0546C3.97327 18.9984 4.22793 18.7087 4.22793 18.3587C4.22793 18.0088 3.97327 17.7191 3.63935 17.6628C3.85193 17.0531 4.33541 16.5697 4.94509 16.3571C5.00131 16.691 5.29107 16.9457 5.64097 16.9457C5.99088 16.9457 6.28064 16.691 6.33686 16.3571C6.94654 16.5697 7.42998 17.0531 7.6426 17.6629C7.30868 17.7191 7.05402 18.0088 7.05402 18.3587C7.05402 18.7087 7.30868 18.9984 7.6426 19.0546Z" fill="#84C978" stroke="#84C978" stroke-width="0.5"/>
<path d="M13.4109 23.3045C13.3576 23.3045 13.3043 23.2985 13.252 23.2864C12.437 23.0983 12.1894 22.8288 11.4326 22.4853C11.0772 22.3241 10.9199 21.9053 11.0812 21.55C11.2424 21.1947 11.6612 21.0373 12.0165 21.1986C12.6388 21.481 12.7425 21.7071 13.4109 21.8716C18.4114 20.6425 21.8891 16.2166 21.8891 11.0521V4.08391L13.4109 2.12737L4.93258 4.08391V9.7393C4.93258 10.192 4.96022 10.6476 5.0148 11.0935C5.06218 11.4808 4.78659 11.8332 4.39928 11.8806C4.01207 11.9278 3.6596 11.6524 3.61222 11.2651C3.55071 10.7624 3.51953 10.2491 3.51953 9.7393V3.52187C3.51953 3.19285 3.74663 2.90742 4.06718 2.83345L13.252 0.713883C13.3565 0.689773 13.4652 0.689773 13.5697 0.713883L22.7545 2.83345C23.0751 2.90742 23.3022 3.19285 23.3022 3.52187V11.0521C23.3022 13.8799 22.3327 16.6559 20.5722 18.8688C18.8119 21.0817 16.325 22.6505 13.5697 23.2865C13.5175 23.2985 13.4642 23.3045 13.4109 23.3045Z" fill="#84C978" stroke="#84C978" stroke-width="0.5"/>
</svg>
