<svg width="20" height="18" viewBox="0 0 20 18" fill="none" xmlns="http://www.w3.org/2000/svg">
<path fill-rule="evenodd" clip-rule="evenodd" d="M9.99459 10.8626C11.0142 10.8626 11.8407 10.0281 11.8407 8.99867C11.8407 7.96926 11.0142 7.13477 9.99459 7.13477C8.97499 7.13477 8.14844 7.96926 8.14844 8.99867C8.14844 10.0281 8.97499 10.8626 9.99459 10.8626Z" stroke="white" stroke-width="1.15385" stroke-linecap="round" stroke-linejoin="round"/>
<path d="M14.0142 5.03891C13.6741 4.70316 13.1261 4.70671 12.7904 5.04684C12.4546 5.38698 12.4582 5.9349 12.7983 6.27066L14.0142 5.03891ZM12.7983 11.7537C12.4582 12.0895 12.4546 12.6374 12.7904 12.9775C13.1261 13.3177 13.6741 13.3212 14.0142 12.9855L12.7983 11.7537ZM6.00746 12.9698C6.34759 13.3056 6.89551 13.302 7.23127 12.9619C7.56703 12.6218 7.56347 12.0738 7.22334 11.7381L6.00746 12.9698ZM7.22334 6.25503C7.56347 5.91928 7.56703 5.37136 7.23127 5.03122C6.89551 4.69108 6.34759 4.68753 6.00746 5.02329L7.22334 6.25503ZM16.2688 2.79325C15.9289 2.45725 15.381 2.46042 15.045 2.80032C14.709 3.14021 14.7122 3.68814 15.0521 4.02413L16.2688 2.79325ZM15.0521 13.9767C14.7122 14.3127 14.709 14.8606 15.045 15.2005C15.381 15.5404 15.9289 15.5436 16.2688 15.2076L15.0521 13.9767ZM3.7388 15.2076C4.0787 15.5436 4.62662 15.5404 4.96262 15.2005C5.29862 14.8606 5.29545 14.3127 4.95556 13.9767L3.7388 15.2076ZM4.95556 4.02413C5.29545 3.68814 5.29862 3.14021 4.96262 2.80032C4.62662 2.46042 4.0787 2.45725 3.7388 2.79325L4.95556 4.02413ZM12.7983 6.27066C13.5364 6.99925 13.9492 7.98572 13.9492 9.01219H15.68C15.68 7.51969 15.0795 6.09051 14.0142 5.03891L12.7983 6.27066ZM13.9492 9.01219C13.9492 10.0387 13.5364 11.0251 12.7983 11.7537L14.0142 12.9855C15.0795 11.9339 15.68 10.5047 15.68 9.01219H13.9492ZM7.22334 11.7381C6.48524 11.0095 6.07242 10.023 6.07242 8.99656H4.34165C4.34165 10.4891 4.94214 11.9182 6.00746 12.9698L7.22334 11.7381ZM6.07242 8.99656C6.07242 7.97009 6.48524 6.98362 7.22334 6.25503L6.00746 5.02329C4.94214 6.07489 4.34165 7.50406 4.34165 8.99656H6.07242ZM15.0521 4.02413C17.8337 6.77388 17.8337 11.2269 15.0521 13.9767L16.2688 15.2076C19.7359 11.7803 19.7359 6.22049 16.2688 2.79325L15.0521 4.02413ZM4.95556 13.9767C2.17387 11.2269 2.17387 6.77388 4.95556 4.02413L3.7388 2.79325C0.271761 6.22049 0.271761 11.7803 3.7388 15.2076L4.95556 13.9767Z" fill="white"/>
</svg>
