<svg width="18" height="14" viewBox="0 0 18 14" fill="none" xmlns="http://www.w3.org/2000/svg">
<path d="M13.0142 3.03891C12.6741 2.70316 12.1261 2.70671 11.7904 3.04684C11.4546 3.38698 11.4582 3.9349 11.7983 4.27066L13.0142 3.03891ZM11.7983 9.75372C11.4582 10.0895 11.4546 10.6374 11.7904 10.9775C12.1261 11.3177 12.6741 11.3212 13.0142 10.9855L11.7983 9.75372ZM5.00746 10.9698C5.34759 11.3056 5.89551 11.302 6.23127 10.9619C6.56703 10.6218 6.56347 10.0738 6.22334 9.73809L5.00746 10.9698ZM6.22334 4.25503C6.56347 3.91928 6.56703 3.37136 6.23127 3.03122C5.89551 2.69108 5.34759 2.68753 5.00746 3.02329L6.22334 4.25503ZM15.2688 0.793249C14.9289 0.457252 14.381 0.460416 14.045 0.800315C13.709 1.14021 13.7122 1.68814 14.0521 2.02413L15.2688 0.793249ZM14.0521 11.9767C13.7122 12.3127 13.709 12.8606 14.045 13.2005C14.381 13.5404 14.9289 13.5436 15.2688 13.2076L14.0521 11.9767ZM2.7388 13.2076C3.0787 13.5436 3.62662 13.5404 3.96262 13.2005C4.29862 12.8606 4.29545 12.3127 3.95556 11.9767L2.7388 13.2076ZM3.95556 2.02413C4.29545 1.68814 4.29862 1.14021 3.96262 0.800315C3.62662 0.460416 3.0787 0.457252 2.7388 0.793249L3.95556 2.02413ZM11.7983 4.27066C12.5364 4.99925 12.9492 5.98572 12.9492 7.01219H14.68C14.68 5.51969 14.0795 4.09051 13.0142 3.03891L11.7983 4.27066ZM12.9492 7.01219C12.9492 8.03866 12.5364 9.02513 11.7983 9.75372L13.0142 10.9855C14.0795 9.93386 14.68 8.50469 14.68 7.01219H12.9492ZM6.22334 9.73809C5.48524 9.0095 5.07242 8.02303 5.07242 6.99656H3.34165C3.34165 8.48906 3.94214 9.91824 5.00746 10.9698L6.22334 9.73809ZM5.07242 6.99656C5.07242 5.97009 5.48524 4.98362 6.22334 4.25503L5.00746 3.02329C3.94214 4.07489 3.34165 5.50406 3.34165 6.99656H5.07242ZM14.0521 2.02413C16.8337 4.77388 16.8337 9.22693 14.0521 11.9767L15.2688 13.2076C18.7359 9.78033 18.7359 4.22049 15.2688 0.793249L14.0521 2.02413ZM3.95556 11.9767C1.17387 9.22693 1.17387 4.77388 3.95556 2.02413L2.7388 0.793249C-0.728239 4.22049 -0.728239 9.78033 2.7388 13.2076L3.95556 11.9767Z" fill="white"/>
</svg>
