<svg width="36" height="36" viewBox="0 0 36 36" fill="none" xmlns="http://www.w3.org/2000/svg">
<path d="M9.76158 27.5002V28.5002H11.7616V27.5002H9.76158ZM24.2378 27.5002V28.5002H26.2378V27.5002H24.2378ZM11.7616 27.5002V27.0475H9.76158V27.5002H11.7616ZM16.1902 22.6192H19.8092V20.6192H16.1902V22.6192ZM24.2378 27.0475V27.5002H26.2378V27.0475H24.2378ZM19.8092 22.6192C22.2551 22.6192 24.2378 24.6018 24.2378 27.0475H26.2378C26.2378 23.4971 23.3595 20.6192 19.8092 20.6192V22.6192ZM11.7616 27.0475C11.7616 24.6018 13.7443 22.6192 16.1902 22.6192V20.6192C12.6398 20.6192 9.76158 23.4971 9.76158 27.0475H11.7616ZM17.9997 9.76207C15.4486 9.76207 13.3806 11.8301 13.3806 14.3811H15.3806C15.3806 12.9347 16.5532 11.7621 17.9997 11.7621V9.76207ZM22.6187 14.3811C22.6187 11.8301 20.5507 9.76207 17.9997 9.76207V11.7621C19.4461 11.7621 20.6187 12.9347 20.6187 14.3811H22.6187ZM17.9997 19.0002C20.5507 19.0002 22.6187 16.9321 22.6187 14.3811H20.6187C20.6187 15.8276 19.4461 17.0002 17.9997 17.0002V19.0002ZM17.9997 17.0002C16.5532 17.0002 15.3806 15.8276 15.3806 14.3811H13.3806C13.3806 16.9321 15.4486 19.0002 17.9997 19.0002V17.0002ZM17.9997 29.6668C11.5564 29.6668 6.33301 24.4435 6.33301 18.0002H4.33301C4.33301 25.5481 10.4518 31.6668 17.9997 31.6668V29.6668ZM29.6663 18.0002C29.6663 24.4435 24.443 29.6668 17.9997 29.6668V31.6668C25.5476 31.6668 31.6663 25.5481 31.6663 18.0002H29.6663ZM17.9997 6.3335C24.443 6.3335 29.6663 11.5568 29.6663 18.0002H31.6663C31.6663 10.4523 25.5476 4.3335 17.9997 4.3335V6.3335ZM17.9997 4.3335C10.4518 4.3335 4.33301 10.4523 4.33301 18.0002H6.33301C6.33301 11.5568 11.5564 6.3335 17.9997 6.3335V4.3335Z" fill="#FF0000"/>
</svg>
