<svg width="22" height="22" viewBox="0 0 22 22" fill="none" xmlns="http://www.w3.org/2000/svg">
<path d="M4.53571 18.5714V19.3214H6.03571V18.5714H4.53571ZM15.9643 18.5714V19.3214H17.4643V18.5714H15.9643ZM6.03571 18.5714V18.1427H4.53571V18.5714H6.03571ZM9.57143 14.6071H12.4286V13.1071H9.57143V14.6071ZM15.9643 18.1427V18.5714H17.4643V18.1427H15.9643ZM12.4286 14.6071C14.3813 14.6071 15.9643 16.19 15.9643 18.1427H17.4643C17.4643 15.3615 15.2097 13.1071 12.4286 13.1071V14.6071ZM6.03571 18.1427C6.03571 16.19 7.61866 14.6071 9.57143 14.6071V13.1071C6.79033 13.1071 4.53571 15.3615 4.53571 18.1427H6.03571ZM11 4.53571C9.00783 4.53571 7.39286 6.15069 7.39286 8.14286H8.89286C8.89286 6.97911 9.83626 6.03571 11 6.03571V4.53571ZM14.6071 8.14286C14.6071 6.15069 12.9922 4.53571 11 4.53571V6.03571C12.1637 6.03571 13.1071 6.97911 13.1071 8.14286H14.6071ZM11 11.75C12.9922 11.75 14.6071 10.135 14.6071 8.14286H13.1071C13.1071 9.3066 12.1637 10.25 11 10.25V11.75ZM11 10.25C9.83626 10.25 8.89286 9.3066 8.89286 8.14286H7.39286C7.39286 10.135 9.00783 11.75 11 11.75V10.25ZM11 20.25C5.89137 20.25 1.75 16.1086 1.75 11H0.25C0.25 16.9371 5.06294 21.75 11 21.75V20.25ZM20.25 11C20.25 16.1086 16.1086 20.25 11 20.25V21.75C16.9371 21.75 21.75 16.9371 21.75 11H20.25ZM11 1.75C16.1086 1.75 20.25 5.89137 20.25 11H21.75C21.75 5.06294 16.9371 0.25 11 0.25V1.75ZM11 0.25C5.06294 0.25 0.25 5.06294 0.25 11H1.75C1.75 5.89137 5.89137 1.75 11 1.75V0.25Z" fill="white"/>
</svg>
