<svg width="26" height="26" viewBox="0 0 26 26" fill="none" xmlns="http://www.w3.org/2000/svg">
<path d="M8.12499 6.49995H9.01924C9.12482 7.01786 9.32967 7.49988 9.61226 7.92613L8.97847 8.55993C8.66114 8.87725 8.66114 9.39167 8.97847 9.70894C9.29569 10.0262 9.81016 10.0263 10.1275 9.70894L10.7613 9.07515C11.1875 9.35774 11.6695 9.56259 12.1875 9.66817V10.5624C12.1875 11.0111 12.5513 11.3749 13 11.3749C13.4487 11.3749 13.8124 11.0111 13.8124 10.5624V9.66817C14.3304 9.56259 14.8124 9.35774 15.2386 9.07515L15.8724 9.70894C16.1897 10.0262 16.7042 10.0263 17.0214 9.70894C17.3388 9.39167 17.3388 8.8772 17.0214 8.55993L16.3876 7.92613C16.6702 7.49988 16.8751 7.01786 16.9807 6.49995H17.8749C18.3236 6.49995 18.6874 6.13616 18.6874 5.68746C18.6874 5.23876 18.3236 4.87496 17.8749 4.87496H16.9807C16.8751 4.35705 16.6702 3.87504 16.3876 3.44878L17.0214 2.81499C17.3388 2.49766 17.3388 1.98325 17.0214 1.66597C16.7042 1.34864 16.1898 1.34864 15.8724 1.66597L15.2386 2.29976C14.8124 2.01717 14.3304 1.81232 13.8124 1.70674V0.812494C13.8124 0.363794 13.4487 0 13 0C12.5513 0 12.1875 0.363794 12.1875 0.812494V1.70674C11.6695 1.81232 11.1875 2.01717 10.7613 2.29976L10.1275 1.66597C9.81016 1.34864 9.29575 1.34864 8.97847 1.66597C8.66114 1.98325 8.66114 2.49771 8.97847 2.81499L9.61226 3.44878C9.32967 3.87504 9.12482 4.35705 9.01924 4.87496H8.12499C7.67629 4.87496 7.3125 5.23876 7.3125 5.68746C7.3125 6.13616 7.67624 6.49995 8.12499 6.49995ZM10.6981 4.88715C10.9426 4.18602 11.4986 3.63007 12.1997 3.38556C12.2644 3.76956 12.5976 4.06242 13 4.06242C13.4023 4.06242 13.7356 3.76956 13.8002 3.38556C14.5013 3.63002 15.0573 4.18602 15.3018 4.88715C14.9178 4.95184 14.6249 5.28502 14.6249 5.68741C14.6249 6.08979 14.9178 6.42302 15.3018 6.48766C15.0573 7.18879 14.5013 7.74474 13.8002 7.98925C13.7355 7.60525 13.4023 7.31239 13 7.31239C12.5976 7.31239 12.2643 7.60525 12.1997 7.98925C11.4986 7.74479 10.9426 7.18879 10.6981 6.48766C11.0821 6.42297 11.375 6.08979 11.375 5.68741C11.375 5.28502 11.0821 4.95184 10.6981 4.88715Z" fill="#0688E6"/>
<path d="M16.4235 18.0375C16.6888 17.767 16.7353 17.3401 16.5192 17.0174C16.455 16.9215 16.5435 17.0194 14.7932 15.2692C14.4759 14.9519 13.9615 14.9519 13.6442 15.2692C13.3269 15.5865 13.3269 16.1009 13.6442 16.4183L13.8821 16.6562H10.1562C9.70754 16.6562 9.34375 17.02 9.34375 17.4687C9.34375 17.9174 9.70754 18.2812 10.1562 18.2812H13.8821L13.6442 18.5192C13.3269 18.8365 13.3269 19.3509 13.6442 19.6683C13.9615 19.9855 14.4759 19.9855 14.7932 19.6683C16.157 18.3045 16.3764 18.0854 16.4235 18.0375Z" fill="#0688E6"/>
<path d="M10.1179 21.373C9.93297 19.807 9.01861 18.4873 7.73964 17.7353C8.47515 17.0661 8.93751 16.1016 8.93751 15.0312V14.2187C8.93751 12.2027 7.29734 10.5625 5.28129 10.5625C3.26524 10.5625 1.62507 12.2027 1.62507 14.2187V15.0312C1.62507 16.0961 2.08291 17.0558 2.81182 17.7247C1.51498 18.4797 0.59178 19.8171 0.415215 21.4063L0.00505757 25.0977C-0.0483639 25.5784 0.328227 25.9999 0.812575 25.9999H9.75001C10.2361 25.9999 10.6139 25.5752 10.5569 25.0921L10.1179 21.373ZM3.25006 14.2187C3.25006 13.0987 4.16127 12.1875 5.28129 12.1875C6.40131 12.1875 7.31253 13.0987 7.31253 14.2187V15.0312C7.31253 16.1512 6.40131 17.0624 5.28129 17.0624C4.16127 17.0624 3.25006 16.1512 3.25006 15.0312V14.2187ZM1.72033 24.3749L2.03025 21.5857C2.21382 19.9334 3.60593 18.6874 5.26839 18.6874C6.91943 18.6874 8.31047 19.9239 8.50405 21.5636L8.83595 24.3749H1.72033Z" fill="#0688E6"/>
<path d="M25.9944 25.0921L25.5554 21.373C25.3705 19.807 24.4561 18.4873 23.1771 17.7353C23.9127 17.0661 24.375 16.1016 24.375 15.0312V14.2187C24.375 12.2027 22.7348 10.5625 20.7188 10.5625C18.7027 10.5625 17.0626 12.2027 17.0626 14.2187V15.0312C17.0626 16.0961 17.5204 17.0558 18.2493 17.7247C16.9525 18.4797 16.0293 19.8171 15.8527 21.4063L15.4426 25.0977C15.3891 25.5784 15.7657 25.9999 16.2501 25.9999H25.1875C25.6735 25.9999 26.0514 25.5752 25.9944 25.0921ZM18.6876 14.2187C18.6876 13.0987 19.5988 12.1875 20.7188 12.1875C21.8388 12.1875 22.75 13.0987 22.75 14.2187V15.0312C22.75 16.1512 21.8388 17.0624 20.7188 17.0624C19.5988 17.0624 18.6876 16.1512 18.6876 15.0312V14.2187ZM17.1578 24.3749L17.4677 21.5857C17.6513 19.9334 19.0434 18.6874 20.7059 18.6874C22.3569 18.6874 23.748 19.9239 23.9415 21.5636L24.2735 24.3749H17.1578Z" fill="#0688E6"/>
</svg>
